<?xml version="1.0" encoding="UTF-8" standalone="no"?>
<!DOCTYPE svg PUBLIC "-//W3C//DTD SVG 1.1//EN" "http://www.w3.org/Graphics/SVG/1.1/DTD/svg11.dtd">
<svg width="100%" height="100%" viewBox="0 0 24 24" version="1.1" xmlns="http://www.w3.org/2000/svg" xmlns:xlink="http://www.w3.org/1999/xlink" xml:space="preserve" xmlns:serif="http://www.serif.com/" style="fill-rule:evenodd;clip-rule:evenodd;stroke-linejoin:round;stroke-miterlimit:1.41421;">
    <path d="M18.986,21.865L18.986,15.461L21.12,15.461L21.12,24L1.844,24L1.844,15.461L3.974,15.461L3.974,21.865L18.986,21.865ZM6.111,19.731L16.85,19.731L16.85,17.594L6.111,17.594L6.111,19.731ZM6.37,14.879L16.85,17.068L17.301,14.998L6.823,12.811L6.37,14.879ZM7.729,9.823L17.434,14.353L18.337,12.403L8.631,7.873L7.729,9.809L7.729,9.823ZM10.444,5.038L18.661,11.893L20.02,10.273L11.804,3.42L10.454,5.037L10.444,5.038ZM15.751,0L14.005,1.294L20.41,9.898L22.156,8.604L15.749,0L15.751,0Z" style="fill:white;fill-rule:nonzero;"/>
</svg>
